<svg width="195" height="46" viewBox="0 0 195 46" fill="none" xmlns="http://www.w3.org/2000/svg">
<path d="M61.7191 30V28.04H64.8791V18.88H61.7191V16.92H70.3591V18.88H67.1991V28.04H70.3591V30H61.7191ZM73.6713 30V15.88H75.9913V19.52L75.8513 21.62H75.9113C76.3379 21.1667 76.8313 20.7733 77.3913 20.44C77.9646 20.1067 78.6246 19.94 79.3713 19.94C80.5046 19.94 81.3379 20.2867 81.8713 20.98C82.4046 21.6733 82.6713 22.6533 82.6713 23.92V30H80.3513V24.22C80.3513 23.4333 80.2113 22.8533 79.9313 22.48C79.6513 22.1067 79.1779 21.92 78.5113 21.92C78.0313 21.92 77.6046 22.0333 77.2313 22.26C76.8579 22.4867 76.4446 22.8333 75.9913 23.3V30H73.6713ZM90.0234 30.24C89.1568 30.24 88.3501 30.04 87.6034 29.64C86.8568 29.2267 86.2501 28.64 85.7834 27.88C85.3168 27.1067 85.0834 26.18 85.0834 25.1C85.0834 24.0067 85.3168 23.08 85.7834 22.32C86.2501 21.5467 86.8568 20.96 87.6034 20.56C88.3501 20.1467 89.1568 19.94 90.0234 19.94C90.8901 19.94 91.6968 20.1467 92.4434 20.56C93.1901 20.96 93.7968 21.5467 94.2634 22.32C94.7301 23.08 94.9634 24.0067 94.9634 25.1C94.9634 26.18 94.7301 27.1067 94.2634 27.88C93.7968 28.64 93.1901 29.2267 92.4434 29.64C91.6968 30.04 90.8901 30.24 90.0234 30.24ZM90.0234 28.36C90.5568 28.36 91.0168 28.2267 91.4034 27.96C91.7901 27.6933 92.0834 27.3133 92.2834 26.82C92.4834 26.3267 92.5834 25.7533 92.5834 25.1C92.5834 24.4467 92.4834 23.8733 92.2834 23.38C92.0834 22.8867 91.7901 22.5067 91.4034 22.24C91.0168 21.96 90.5568 21.82 90.0234 21.82C89.4901 21.82 89.0301 21.96 88.6434 22.24C88.2701 22.5067 87.9768 22.8867 87.7634 23.38C87.5634 23.8733 87.4634 24.4467 87.4634 25.1C87.4634 25.7533 87.5634 26.3267 87.7634 26.82C87.9768 27.3133 88.2701 27.6933 88.6434 27.96C89.0301 28.2267 89.4901 28.36 90.0234 28.36ZM98.6156 30V20.18H100.516L100.716 22.4H100.776C101.269 21.6 101.876 20.9933 102.596 20.58C103.329 20.1533 104.116 19.94 104.956 19.94C105.356 19.94 105.702 19.9733 105.996 20.04C106.289 20.1067 106.576 20.2067 106.856 20.34L106.376 22.28C106.056 22.1733 105.769 22.1 105.516 22.06C105.276 22.0067 104.969 21.98 104.596 21.98C103.929 21.98 103.276 22.1733 102.636 22.56C102.009 22.9467 101.442 23.62 100.936 24.58V30H98.6156ZM122.4 30V16.92H124.7V28.04H130.84V30H122.4ZM138.592 30.24C137.592 30.24 136.686 30.04 135.872 29.64C135.059 29.2267 134.412 28.64 133.932 27.88C133.452 27.1067 133.212 26.1733 133.212 25.08C133.212 24.0133 133.452 23.1 133.932 22.34C134.412 21.5667 135.039 20.9733 135.812 20.56C136.586 20.1467 137.412 19.94 138.292 19.94C139.266 19.94 140.086 20.14 140.752 20.54C141.432 20.94 141.946 21.4933 142.292 22.2C142.652 22.8933 142.832 23.6933 142.832 24.6C142.832 24.8267 142.819 25.0467 142.792 25.26C142.779 25.46 142.759 25.6267 142.732 25.76H134.872V24.12H141.252L140.812 24.64C140.812 23.6667 140.592 22.94 140.152 22.46C139.726 21.9667 139.126 21.72 138.352 21.72C137.806 21.72 137.312 21.8467 136.872 22.1C136.446 22.3533 136.106 22.7333 135.852 23.24C135.599 23.7333 135.472 24.3467 135.472 25.08C135.472 25.84 135.612 26.4667 135.892 26.96C136.186 27.4533 136.586 27.8267 137.092 28.08C137.612 28.3333 138.212 28.46 138.892 28.46C139.412 28.46 139.892 28.3867 140.332 28.24C140.772 28.0933 141.212 27.8933 141.652 27.64L142.432 29.08C141.912 29.4133 141.326 29.6933 140.672 29.92C140.019 30.1333 139.326 30.24 138.592 30.24ZM148.724 30L144.804 20.18H147.124L149.024 25.28C149.198 25.76 149.364 26.2467 149.524 26.74C149.698 27.2333 149.858 27.7333 150.004 28.24H150.084C150.244 27.7333 150.404 27.2333 150.564 26.74C150.724 26.2467 150.891 25.76 151.064 25.28L152.964 20.18H155.164L151.344 30H148.724ZM161.917 30V22H157.657V20.18H164.217V30H161.917ZM162.897 18.38C162.43 18.38 162.037 18.24 161.717 17.96C161.41 17.68 161.257 17.3067 161.257 16.84C161.257 16.3733 161.41 16 161.717 15.72C162.037 15.4267 162.43 15.28 162.897 15.28C163.377 15.28 163.77 15.4267 164.077 15.72C164.383 16 164.537 16.3733 164.537 16.84C164.537 17.3067 164.383 17.68 164.077 17.96C163.77 18.24 163.377 18.38 162.897 18.38ZM169.609 30V20.18H171.509L171.689 21.66H171.769C172.235 21.18 172.749 20.7733 173.309 20.44C173.882 20.1067 174.549 19.94 175.309 19.94C176.442 19.94 177.275 20.2867 177.809 20.98C178.342 21.6733 178.609 22.6533 178.609 23.92V30H176.289V24.22C176.289 23.4333 176.149 22.8533 175.869 22.48C175.589 22.1067 175.115 21.92 174.449 21.92C173.969 21.92 173.542 22.0333 173.169 22.26C172.795 22.4867 172.382 22.8333 171.929 23.3V30H169.609Z" fill="#66FCF1"/>
<path d="M33.259 3.06308C33.3234 2.86294 33.3459 2.65264 33.3253 2.44418C33.3046 2.23572 33.2413 2.03318 33.1389 1.84814C33.0364 1.6631 32.8969 1.49917 32.7282 1.36571C32.5596 1.23226 32.3651 1.13189 32.1558 1.07034C31.9466 1.00879 31.7268 0.987266 31.5089 1.00699C31.291 1.02672 31.0793 1.08731 30.8858 1.18531C30.6924 1.28331 30.521 1.41679 30.3815 1.57815C30.242 1.7395 30.1371 1.92556 30.0728 2.1257L16.741 43.5747C16.6111 43.9789 16.6543 44.4159 16.8612 44.7897C17.0681 45.1634 17.4217 45.4432 17.8442 45.5675C18.2667 45.6918 18.7236 45.6504 19.1142 45.4525C19.5049 45.2546 19.7974 44.9163 19.9273 44.5121L33.259 3.06308ZM14.5146 11.0309C14.6698 11.1789 14.7929 11.3549 14.8769 11.5485C14.961 11.7422 15.0042 11.9499 15.0042 12.1595C15.0042 12.3692 14.961 12.5769 14.8769 12.7706C14.7929 12.9642 14.6698 13.1402 14.5146 13.2882L4.02586 23.3189L14.5146 33.3496C14.8275 33.6489 15.0033 34.0549 15.0033 34.4783C15.0033 34.9016 14.8275 35.3076 14.5146 35.6069C14.2017 35.9063 13.7773 36.0745 13.3348 36.0745C12.8922 36.0745 12.4678 35.9063 12.1549 35.6069L0.489618 24.4476C0.334426 24.2995 0.211298 24.1236 0.127286 23.9299C0.0432747 23.7362 3.05176e-05 23.5286 3.05176e-05 23.3189C3.05176e-05 23.1092 0.0432747 22.9016 0.127286 22.7079C0.211298 22.5142 0.334426 22.3383 0.489618 22.1902L12.1549 11.0309C12.3097 10.8824 12.4936 10.7646 12.6961 10.6842C12.8985 10.6039 13.1156 10.5625 13.3348 10.5625C13.554 10.5625 13.771 10.6039 13.9735 10.6842C14.1759 10.7646 14.3598 10.8824 14.5146 11.0309ZM35.4854 11.0309C35.3303 11.1789 35.2071 11.3549 35.1231 11.5485C35.0391 11.7422 34.9959 11.9499 34.9959 12.1595C34.9959 12.3692 35.0391 12.5769 35.1231 12.7706C35.2071 12.9642 35.3303 13.1402 35.4854 13.2882L45.9742 23.3189L35.4854 33.3496C35.3305 33.4978 35.2076 33.6737 35.1237 33.8674C35.0399 34.0611 34.9967 34.2686 34.9967 34.4783C34.9967 34.6879 35.0399 34.8954 35.1237 35.0891C35.2076 35.2828 35.3305 35.4587 35.4854 35.6069C35.6404 35.7552 35.8243 35.8727 36.0268 35.953C36.2292 36.0332 36.4462 36.0745 36.6653 36.0745C36.8844 36.0745 37.1014 36.0332 37.3038 35.953C37.5063 35.8727 37.6902 35.7552 37.8452 35.6069L49.5104 24.4476C49.6656 24.2995 49.7888 24.1236 49.8728 23.9299C49.9568 23.7362 50 23.5286 50 23.3189C50 23.1092 49.9568 22.9016 49.8728 22.7079C49.7888 22.5142 49.6656 22.3383 49.5104 22.1902L37.8452 11.0309C37.6904 10.8824 37.5065 10.7646 37.304 10.6842C37.1016 10.6039 36.8845 10.5625 36.6653 10.5625C36.4461 10.5625 36.2291 10.6039 36.0266 10.6842C35.8241 10.7646 35.6402 10.8824 35.4854 11.0309Z" fill="#66FCF1"/>
</svg>
