<svg width="150" height="80" viewBox="0 0 150 80" fill="none" xmlns="http://www.w3.org/2000/svg">
<path d="M16.719 64.8175V62.8575H19.879V53.6975H16.719V51.7375H25.359V53.6975H22.199V62.8575H25.359V64.8175H16.719ZM28.6712 64.8175V50.6975H30.9912V54.3375L30.8512 56.4375H30.9112C31.3379 55.9842 31.8312 55.5908 32.3912 55.2575C32.9645 54.9242 33.6245 54.7575 34.3712 54.7575C35.5045 54.7575 36.3379 55.1042 36.8712 55.7975C37.4045 56.4908 37.6712 57.4708 37.6712 58.7375V64.8175H35.3512V59.0375C35.3512 58.2508 35.2112 57.6708 34.9312 57.2975C34.6512 56.9242 34.1779 56.7375 33.5112 56.7375C33.0312 56.7375 32.6045 56.8508 32.2312 57.0775C31.8579 57.3042 31.4445 57.6508 30.9912 58.1175V64.8175H28.6712ZM45.0234 65.0575C44.1567 65.0575 43.35 64.8575 42.6034 64.4575C41.8567 64.0442 41.25 63.4575 40.7834 62.6975C40.3167 61.9242 40.0834 60.9975 40.0834 59.9175C40.0834 58.8242 40.3167 57.8975 40.7834 57.1375C41.25 56.3642 41.8567 55.7775 42.6034 55.3775C43.35 54.9642 44.1567 54.7575 45.0234 54.7575C45.89 54.7575 46.6967 54.9642 47.4434 55.3775C48.19 55.7775 48.7967 56.3642 49.2634 57.1375C49.73 57.8975 49.9634 58.8242 49.9634 59.9175C49.9634 60.9975 49.73 61.9242 49.2634 62.6975C48.7967 63.4575 48.19 64.0442 47.4434 64.4575C46.6967 64.8575 45.89 65.0575 45.0234 65.0575ZM45.0234 63.1775C45.5567 63.1775 46.0167 63.0442 46.4034 62.7775C46.79 62.5108 47.0834 62.1308 47.2834 61.6375C47.4834 61.1442 47.5834 60.5708 47.5834 59.9175C47.5834 59.2642 47.4834 58.6908 47.2834 58.1975C47.0834 57.7042 46.79 57.3242 46.4034 57.0575C46.0167 56.7775 45.5567 56.6375 45.0234 56.6375C44.49 56.6375 44.03 56.7775 43.6434 57.0575C43.27 57.3242 42.9767 57.7042 42.7634 58.1975C42.5634 58.6908 42.4634 59.2642 42.4634 59.9175C42.4634 60.5708 42.5634 61.1442 42.7634 61.6375C42.9767 62.1308 43.27 62.5108 43.6434 62.7775C44.03 63.0442 44.49 63.1775 45.0234 63.1775ZM53.6156 64.8175V54.9975H55.5156L55.7156 57.2175H55.7756C56.2689 56.4175 56.8756 55.8108 57.5956 55.3975C58.3289 54.9708 59.1156 54.7575 59.9556 54.7575C60.3556 54.7575 60.7022 54.7908 60.9956 54.8575C61.2889 54.9242 61.5756 55.0242 61.8556 55.1575L61.3756 57.0975C61.0556 56.9908 60.7689 56.9175 60.5156 56.8775C60.2756 56.8242 59.9689 56.7975 59.5956 56.7975C58.9289 56.7975 58.2756 56.9908 57.6356 57.3775C57.0089 57.7642 56.4422 58.4375 55.9356 59.3975V64.8175H53.6156ZM77.3999 64.8175V51.7375H79.6999V62.8575H85.8399V64.8175H77.3999ZM93.5921 65.0575C92.5921 65.0575 91.6855 64.8575 90.8721 64.4575C90.0588 64.0442 89.4121 63.4575 88.9321 62.6975C88.4521 61.9242 88.2121 60.9908 88.2121 59.8975C88.2121 58.8308 88.4521 57.9175 88.9321 57.1575C89.4121 56.3842 90.0388 55.7908 90.8121 55.3775C91.5855 54.9642 92.4121 54.7575 93.2921 54.7575C94.2655 54.7575 95.0855 54.9575 95.7521 55.3575C96.4321 55.7575 96.9455 56.3108 97.2921 57.0175C97.6521 57.7108 97.8321 58.5108 97.8321 59.4175C97.8321 59.6442 97.8188 59.8642 97.7921 60.0775C97.7788 60.2775 97.7588 60.4442 97.7321 60.5775H89.8721V58.9375H96.2521L95.8121 59.4575C95.8121 58.4842 95.5921 57.7575 95.1521 57.2775C94.7255 56.7842 94.1255 56.5375 93.3521 56.5375C92.8055 56.5375 92.3121 56.6642 91.8721 56.9175C91.4455 57.1708 91.1055 57.5508 90.8521 58.0575C90.5988 58.5508 90.4721 59.1642 90.4721 59.8975C90.4721 60.6575 90.6121 61.2842 90.8921 61.7775C91.1855 62.2708 91.5855 62.6442 92.0921 62.8975C92.6121 63.1508 93.2121 63.2775 93.8921 63.2775C94.4121 63.2775 94.8921 63.2042 95.3321 63.0575C95.7721 62.9108 96.2121 62.7108 96.6521 62.4575L97.4321 63.8975C96.9121 64.2308 96.3255 64.5108 95.6721 64.7375C95.0188 64.9508 94.3255 65.0575 93.5921 65.0575ZM103.724 64.8175L99.8043 54.9975H102.124L104.024 60.0975C104.198 60.5775 104.364 61.0642 104.524 61.5575C104.698 62.0508 104.858 62.5508 105.004 63.0575H105.084C105.244 62.5508 105.404 62.0508 105.564 61.5575C105.724 61.0642 105.891 60.5775 106.064 60.0975L107.964 54.9975H110.164L106.344 64.8175H103.724ZM116.917 64.8175V56.8175H112.657V54.9975H119.217V64.8175H116.917ZM117.897 53.1975C117.43 53.1975 117.037 53.0575 116.717 52.7775C116.41 52.4975 116.257 52.1242 116.257 51.6575C116.257 51.1908 116.41 50.8175 116.717 50.5375C117.037 50.2442 117.43 50.0975 117.897 50.0975C118.377 50.0975 118.77 50.2442 119.077 50.5375C119.383 50.8175 119.537 51.1908 119.537 51.6575C119.537 52.1242 119.383 52.4975 119.077 52.7775C118.77 53.0575 118.377 53.1975 117.897 53.1975ZM124.609 64.8175V54.9975H126.509L126.689 56.4775H126.769C127.235 55.9975 127.749 55.5908 128.309 55.2575C128.882 54.9242 129.549 54.7575 130.309 54.7575C131.442 54.7575 132.275 55.1042 132.809 55.7975C133.342 56.4908 133.609 57.4708 133.609 58.7375V64.8175H131.289V59.0375C131.289 58.2508 131.149 57.6708 130.869 57.2975C130.589 56.9242 130.115 56.7375 129.449 56.7375C128.969 56.7375 128.542 56.8508 128.169 57.0775C127.795 57.3042 127.382 57.6508 126.929 58.1175V64.8175H124.609Z" fill="#66FCF1"/>
<path d="M83.259 2.06308C83.3234 1.86294 83.3459 1.65264 83.3253 1.44418C83.3046 1.23572 83.2413 1.03318 83.1389 0.848141C83.0364 0.663098 82.8969 0.499169 82.7282 0.365714C82.5596 0.232259 82.3651 0.131891 82.1558 0.0703418C81.9466 0.00879221 81.7268 -0.0127339 81.5089 0.00699226C81.291 0.0267184 81.0793 0.0873108 80.8858 0.18531C80.6924 0.283308 80.521 0.416795 80.3815 0.578147C80.242 0.739499 80.1371 0.925557 80.0728 1.1257L66.741 42.5747C66.6111 42.9789 66.6543 43.4159 66.8612 43.7897C67.0681 44.1634 67.4217 44.4432 67.8442 44.5675C68.2667 44.6918 68.7236 44.6504 69.1142 44.4525C69.5049 44.2546 69.7974 43.9163 69.9273 43.5121L83.259 2.06308ZM64.5146 10.0309C64.6698 10.1789 64.7929 10.3549 64.8769 10.5485C64.961 10.7422 65.0042 10.9499 65.0042 11.1595C65.0042 11.3692 64.961 11.5769 64.8769 11.7706C64.7929 11.9642 64.6698 12.1402 64.5146 12.2882L54.0259 22.3189L64.5146 32.3496C64.8275 32.6489 65.0033 33.0549 65.0033 33.4783C65.0033 33.9016 64.8275 34.3076 64.5146 34.6069C64.2017 34.9063 63.7773 35.0745 63.3348 35.0745C62.8922 35.0745 62.4678 34.9063 62.1549 34.6069L50.4896 23.4476C50.3344 23.2995 50.2113 23.1236 50.1273 22.9299C50.0433 22.7362 50 22.5286 50 22.3189C50 22.1092 50.0433 21.9016 50.1273 21.7079C50.2113 21.5142 50.3344 21.3383 50.4896 21.1902L62.1549 10.0309C62.3097 9.8824 62.4936 9.76461 62.6961 9.68424C62.8985 9.60387 63.1156 9.56251 63.3348 9.56251C63.554 9.56251 63.771 9.60387 63.9735 9.68424C64.1759 9.76461 64.3598 9.8824 64.5146 10.0309ZM85.4854 10.0309C85.3303 10.1789 85.2071 10.3549 85.1231 10.5485C85.0391 10.7422 84.9959 10.9499 84.9959 11.1595C84.9959 11.3692 85.0391 11.5769 85.1231 11.7706C85.2071 11.9642 85.3303 12.1402 85.4854 12.2882L95.9742 22.3189L85.4854 32.3496C85.3305 32.4978 85.2076 32.6737 85.1237 32.8674C85.0399 33.0611 84.9967 33.2686 84.9967 33.4783C84.9967 33.6879 85.0399 33.8954 85.1237 34.0891C85.2076 34.2828 85.3305 34.4587 85.4854 34.6069C85.6404 34.7552 85.8243 34.8727 86.0268 34.953C86.2292 35.0332 86.4462 35.0745 86.6653 35.0745C86.8844 35.0745 87.1014 35.0332 87.3038 34.953C87.5063 34.8727 87.6902 34.7552 87.8452 34.6069L99.5104 23.4476C99.6656 23.2995 99.7888 23.1236 99.8728 22.9299C99.9568 22.7362 100 22.5286 100 22.3189C100 22.1092 99.9568 21.9016 99.8728 21.7079C99.7888 21.5142 99.6656 21.3383 99.5104 21.1902L87.8452 10.0309C87.6904 9.8824 87.5065 9.76461 87.304 9.68424C87.1016 9.60387 86.8845 9.56251 86.6653 9.56251C86.4461 9.56251 86.2291 9.60387 86.0266 9.68424C85.8241 9.76461 85.6402 9.8824 85.4854 10.0309Z" fill="#66FCF1"/>
</svg>
