<svg width="150" height="80" viewBox="0 0 150 80" fill="none" xmlns="http://www.w3.org/2000/svg">
<path d="M16.7191 64.8175V62.8575H19.8791V53.6975H16.7191V51.7375H25.3591V53.6975H22.1991V62.8575H25.3591V64.8175H16.7191ZM28.6713 64.8175V50.6975H30.9913V54.3375L30.8513 56.4375H30.9113C31.3379 55.9842 31.8313 55.5909 32.3913 55.2575C32.9646 54.9242 33.6246 54.7575 34.3713 54.7575C35.5046 54.7575 36.3379 55.1042 36.8713 55.7975C37.4046 56.4909 37.6713 57.4709 37.6713 58.7375V64.8175H35.3513V59.0375C35.3513 58.2509 35.2113 57.6709 34.9313 57.2975C34.6513 56.9242 34.1779 56.7375 33.5113 56.7375C33.0313 56.7375 32.6046 56.8509 32.2313 57.0775C31.8579 57.3042 31.4446 57.6509 30.9913 58.1175V64.8175H28.6713ZM45.0234 65.0575C44.1568 65.0575 43.3501 64.8575 42.6034 64.4575C41.8568 64.0442 41.2501 63.4575 40.7834 62.6975C40.3168 61.9242 40.0834 60.9975 40.0834 59.9175C40.0834 58.8242 40.3168 57.8975 40.7834 57.1375C41.2501 56.3642 41.8568 55.7775 42.6034 55.3775C43.3501 54.9642 44.1568 54.7575 45.0234 54.7575C45.8901 54.7575 46.6968 54.9642 47.4434 55.3775C48.1901 55.7775 48.7968 56.3642 49.2634 57.1375C49.7301 57.8975 49.9634 58.8242 49.9634 59.9175C49.9634 60.9975 49.7301 61.9242 49.2634 62.6975C48.7968 63.4575 48.1901 64.0442 47.4434 64.4575C46.6968 64.8575 45.8901 65.0575 45.0234 65.0575ZM45.0234 63.1775C45.5568 63.1775 46.0168 63.0442 46.4034 62.7775C46.7901 62.5109 47.0834 62.1309 47.2834 61.6375C47.4834 61.1442 47.5834 60.5709 47.5834 59.9175C47.5834 59.2642 47.4834 58.6909 47.2834 58.1975C47.0834 57.7042 46.7901 57.3242 46.4034 57.0575C46.0168 56.7775 45.5568 56.6375 45.0234 56.6375C44.4901 56.6375 44.0301 56.7775 43.6434 57.0575C43.2701 57.3242 42.9768 57.7042 42.7634 58.1975C42.5634 58.6909 42.4634 59.2642 42.4634 59.9175C42.4634 60.5709 42.5634 61.1442 42.7634 61.6375C42.9768 62.1309 43.2701 62.5109 43.6434 62.7775C44.0301 63.0442 44.4901 63.1775 45.0234 63.1775ZM53.6156 64.8175V54.9975H55.5156L55.7156 57.2175H55.7756C56.269 56.4175 56.8756 55.8109 57.5956 55.3975C58.329 54.9709 59.1156 54.7575 59.9556 54.7575C60.3556 54.7575 60.7023 54.7909 60.9956 54.8575C61.289 54.9242 61.5756 55.0242 61.8556 55.1575L61.3756 57.0975C61.0556 56.9909 60.769 56.9175 60.5156 56.8775C60.2756 56.8242 59.969 56.7975 59.5956 56.7975C58.929 56.7975 58.2756 56.9909 57.6356 57.3775C57.009 57.7642 56.4423 58.4375 55.9356 59.3975V64.8175H53.6156ZM77.4 64.8175V51.7375H79.7V62.8575H85.84V64.8175H77.4ZM93.5922 65.0575C92.5922 65.0575 91.6855 64.8575 90.8722 64.4575C90.0589 64.0442 89.4122 63.4575 88.9322 62.6975C88.4522 61.9242 88.2122 60.9909 88.2122 59.8975C88.2122 58.8309 88.4522 57.9175 88.9322 57.1575C89.4122 56.3842 90.0389 55.7909 90.8122 55.3775C91.5855 54.9642 92.4122 54.7575 93.2922 54.7575C94.2655 54.7575 95.0855 54.9575 95.7522 55.3575C96.4322 55.7575 96.9455 56.3109 97.2922 57.0175C97.6522 57.7109 97.8322 58.5109 97.8322 59.4175C97.8322 59.6442 97.8189 59.8642 97.7922 60.0775C97.7789 60.2775 97.7589 60.4442 97.7322 60.5775H89.8722V58.9375H96.2522L95.8122 59.4575C95.8122 58.4842 95.5922 57.7575 95.1522 57.2775C94.7255 56.7842 94.1255 56.5375 93.3522 56.5375C92.8055 56.5375 92.3122 56.6642 91.8722 56.9175C91.4455 57.1709 91.1055 57.5509 90.8522 58.0575C90.5989 58.5509 90.4722 59.1642 90.4722 59.8975C90.4722 60.6575 90.6122 61.2842 90.8922 61.7775C91.1855 62.2709 91.5855 62.6442 92.0922 62.8975C92.6122 63.1509 93.2122 63.2775 93.8922 63.2775C94.4122 63.2775 94.8922 63.2042 95.3322 63.0575C95.7722 62.9109 96.2122 62.7109 96.6522 62.4575L97.4322 63.8975C96.9122 64.2309 96.3255 64.5109 95.6722 64.7375C95.0189 64.9509 94.3255 65.0575 93.5922 65.0575ZM103.724 64.8175L99.8044 54.9975H102.124L104.024 60.0975C104.198 60.5775 104.364 61.0642 104.524 61.5575C104.698 62.0509 104.858 62.5509 105.004 63.0575H105.084C105.244 62.5509 105.404 62.0509 105.564 61.5575C105.724 61.0642 105.891 60.5775 106.064 60.0975L107.964 54.9975H110.164L106.344 64.8175H103.724ZM116.917 64.8175V56.8175H112.657V54.9975H119.217V64.8175H116.917ZM117.897 53.1975C117.43 53.1975 117.037 53.0575 116.717 52.7775C116.41 52.4975 116.257 52.1242 116.257 51.6575C116.257 51.1909 116.41 50.8175 116.717 50.5375C117.037 50.2442 117.43 50.0975 117.897 50.0975C118.377 50.0975 118.77 50.2442 119.077 50.5375C119.383 50.8175 119.537 51.1909 119.537 51.6575C119.537 52.1242 119.383 52.4975 119.077 52.7775C118.77 53.0575 118.377 53.1975 117.897 53.1975ZM124.609 64.8175V54.9975H126.509L126.689 56.4775H126.769C127.235 55.9975 127.749 55.5909 128.309 55.2575C128.882 54.9242 129.549 54.7575 130.309 54.7575C131.442 54.7575 132.275 55.1042 132.809 55.7975C133.342 56.4909 133.609 57.4709 133.609 58.7375V64.8175H131.289V59.0375C131.289 58.2509 131.149 57.6709 130.869 57.2975C130.589 56.9242 130.115 56.7375 129.449 56.7375C128.969 56.7375 128.542 56.8509 128.169 57.0775C127.795 57.3042 127.382 57.6509 126.929 58.1175V64.8175H124.609Z" fill="white"/>
<path d="M83.2591 2.06308C83.3234 1.86294 83.3459 1.65264 83.3253 1.44418C83.3047 1.23572 83.2414 1.03318 83.1389 0.848141C83.0365 0.663098 82.8969 0.499169 82.7283 0.365714C82.5596 0.232259 82.3651 0.131891 82.1559 0.0703418C81.9467 0.00879221 81.7269 -0.0127339 81.5089 0.00699226C81.291 0.0267184 81.0793 0.0873108 80.8859 0.18531C80.6924 0.283308 80.5211 0.416795 80.3816 0.578147C80.2421 0.739499 80.1372 0.925557 80.0728 1.1257L66.7411 42.5747C66.6111 42.9789 66.6544 43.4159 66.8613 43.7897C67.0681 44.1634 67.4217 44.4432 67.8443 44.5675C68.2668 44.6918 68.7236 44.6504 69.1143 44.4525C69.505 44.2546 69.7974 43.9163 69.9274 43.5121L83.2591 2.06308ZM64.5147 10.0309C64.6699 10.1789 64.793 10.3549 64.877 10.5485C64.961 10.7422 65.0043 10.9499 65.0043 11.1595C65.0043 11.3692 64.961 11.5769 64.877 11.7706C64.793 11.9642 64.6699 12.1402 64.5147 12.2882L54.0259 22.3189L64.5147 32.3496C64.8276 32.6489 65.0034 33.0549 65.0034 33.4783C65.0034 33.9016 64.8276 34.3076 64.5147 34.6069C64.2018 34.9063 63.7773 35.0745 63.3348 35.0745C62.8923 35.0745 62.4679 34.9063 62.155 34.6069L50.4897 23.4476C50.3345 23.2995 50.2114 23.1236 50.1273 22.9299C50.0433 22.7362 50.0001 22.5286 50.0001 22.3189C50.0001 22.1092 50.0433 21.9016 50.1273 21.7079C50.2114 21.5142 50.3345 21.3383 50.4897 21.1902L62.155 10.0309C62.3098 9.8824 62.4937 9.76461 62.6961 9.68424C62.8986 9.60387 63.1156 9.56251 63.3348 9.56251C63.554 9.56251 63.7711 9.60387 63.9735 9.68424C64.176 9.76461 64.3599 9.8824 64.5147 10.0309ZM85.4855 10.0309C85.3303 10.1789 85.2072 10.3549 85.1232 10.5485C85.0392 10.7422 84.9959 10.9499 84.9959 11.1595C84.9959 11.3692 85.0392 11.5769 85.1232 11.7706C85.2072 11.9642 85.3303 12.1402 85.4855 12.2882L95.9743 22.3189L85.4855 32.3496C85.3306 32.4978 85.2077 32.6737 85.1238 32.8674C85.04 33.0611 84.9968 33.2686 84.9968 33.4783C84.9968 33.6879 85.04 33.8954 85.1238 34.0891C85.2077 34.2828 85.3306 34.4587 85.4855 34.6069C85.6404 34.7552 85.8244 34.8727 86.0268 34.953C86.2293 35.0332 86.4462 35.0745 86.6654 35.0745C86.8845 35.0745 87.1015 35.0332 87.3039 34.953C87.5063 34.8727 87.6903 34.7552 87.8452 34.6069L99.5105 23.4476C99.6657 23.2995 99.7888 23.1236 99.8728 22.9299C99.9568 22.7362 100 22.5286 100 22.3189C100 22.1092 99.9568 21.9016 99.8728 21.7079C99.7888 21.5142 99.6657 21.3383 99.5105 21.1902L87.8452 10.0309C87.6904 9.8824 87.5065 9.76461 87.3041 9.68424C87.1016 9.60387 86.8846 9.56251 86.6654 9.56251C86.4462 9.56251 86.2291 9.60387 86.0267 9.68424C85.8242 9.76461 85.6403 9.8824 85.4855 10.0309Z" fill="white"/>
</svg>
